<?xml version="1.0"?>
<svg xmlns="http://www.w3.org/2000/svg" viewBox="0 0 16 16">
    <path style="line-height:normal;text-indent:0;text-align:start;text-decoration-line:none;text-decoration-style:solid;text-decoration-color:#000;text-transform:none;block-progression:tb;isolation:auto;mix-blend-mode:normal" d="M 7 1 C 3.6922138 1 1 3.6922138 1 7 C 1 10.307786 3.6922138 13 7 13 C 9.0846051 13 10.924146 11.929281 12 10.310547 L 12 11.5 C 12 12.872727 13.127273 14 14.5 14 L 15 14 L 15 13 L 14.5 13 C 13.672727 13 13 12.327273 13 11.5 L 13 7 C 13 3.6922138 10.307786 1 7 1 z M 7 2 C 9.7673461 2 12 4.2326539 12 7 C 12 9.7673461 9.7673461 12 7 12 C 4.2326539 12 2 9.7673461 2 7 C 2 4.2326539 4.2326539 2 7 2 z M 5.4394531 3.3222656 C 4.9794531 3.5172656 4.546875 3.796875 4.171875 4.171875 C 3.795875 4.546875 3.5172656 4.9794531 3.3222656 5.4394531 L 4.7890625 5.8554688 C 4.9040625 5.6324688 5.0454219 5.4194219 5.2324219 5.2324219 C 5.4194219 5.0454219 5.6324688 4.9040625 5.8554688 4.7890625 L 5.4394531 3.3222656 z M 8.5605469 3.3222656 L 8.1445312 4.7890625 C 8.3675313 4.9050625 8.5805781 5.0454219 8.7675781 5.2324219 C 8.9545781 5.4194219 9.0959375 5.6324688 9.2109375 5.8554688 L 10.679688 5.4394531 C 10.484687 4.9794531 10.203125 4.547875 9.828125 4.171875 C 9.452125 3.796875 9.0205469 3.5172656 8.5605469 3.3222656 z M 7 6 A 1 1 0 0 0 6 7 A 1 1 0 0 0 7 8 A 1 1 0 0 0 8 7 A 1 1 0 0 0 7 6 z M 4.7890625 8.1445312 L 3.3222656 8.5605469 C 3.5172656 9.0205469 3.796875 9.452125 4.171875 9.828125 C 4.546875 10.203125 4.9804062 10.484688 5.4414062 10.679688 L 5.8554688 9.2109375 C 5.6324688 9.0949375 5.4194219 8.9545781 5.2324219 8.7675781 C 5.0454219 8.5805781 4.9050625 8.3675312 4.7890625 8.1445312 z M 9.2109375 8.1445312 C 9.0949375 8.3665313 8.9545781 8.5805781 8.7675781 8.7675781 C 8.5805781 8.9545781 8.3675313 9.0959375 8.1445312 9.2109375 L 8.5605469 10.679688 C 9.0205469 10.484687 9.453125 10.203125 9.828125 9.828125 C 10.203125 9.453125 10.484688 9.0205469 10.679688 8.5605469 L 9.2109375 8.1445312 z" font-weight="400" font-family="sans-serif" white-space="normal" overflow="visible"/>
</svg>
