<?xml version="1.0" encoding="iso-8859-1"?>
<!-- Generator: Adobe Illustrator 19.0.0, SVG Export Plug-In . SVG Version: 6.00 Build 0)  -->
<svg version="1.1" id="Capa_1" xmlns="http://www.w3.org/2000/svg" xmlns:xlink="http://www.w3.org/1999/xlink" x="0px" y="0px"
	 viewBox="0 0 353.315 353.315" style="enable-background:new 0 0 353.315 353.315;" xml:space="preserve">
<g>
	<g id="Dibujo_41_">
		<g>
			<path d="M27.603,184.938c6.095,0,11.041-4.946,11.041-11.041c0-21.304,17.34-38.644,38.644-38.644
				c1.529,0,3.991,0.375,6.586,0.894v10.147c0,6.095,4.946,11.041,11.041,11.041c6.095,0,11.041-4.946,11.041-11.041v-17.771
				c5.924-34.52,35.53-59.517,70.702-59.517s64.778,24.997,70.702,59.517v17.771c0,6.095,4.941,11.041,11.041,11.041
				c6.1,0,11.041-4.946,11.041-11.041v-10.147c2.595-0.519,5.057-0.894,6.586-0.894c21.304,0,38.644,17.34,38.644,38.644
				c0,6.095,4.946,11.041,11.041,11.041s11.041-4.946,11.041-11.041c0-33.482-27.244-60.726-60.726-60.726
				c-2.799,0-6.139,0.436-9.324,1.016c-11.549-39.593-47.736-67.262-90.046-67.262s-78.497,27.669-90.051,67.262
				c-3.18-0.58-6.52-1.016-9.319-1.016c-33.482,0-60.726,27.244-60.726,60.726C16.562,179.992,21.508,184.938,27.603,184.938z"/>
			<path d="M132.493,218.062c0,6.095,4.941,11.041,11.041,11.041h198.74c6.095,0,11.041-4.946,11.041-11.041
				s-4.946-11.041-11.041-11.041h-198.74C137.434,207.021,132.493,211.967,132.493,218.062z"/>
			<path d="M176.658,245.664c-6.1,0-11.041,4.946-11.041,11.041s4.941,11.041,11.041,11.041h149.055
				c6.095,0,11.041-4.946,11.041-11.041s-4.946-11.041-11.041-11.041H176.658z"/>
			<path d="M342.274,284.308H209.781c-6.1,0-11.041,4.946-11.041,11.041s4.941,11.041,11.041,11.041h132.493
				c6.095,0,11.041-4.946,11.041-11.041S348.369,284.308,342.274,284.308z"/>
			<path d="M11.041,229.103h99.37c6.095,0,11.041-4.946,11.041-11.041s-4.946-11.041-11.041-11.041h-99.37
				C4.946,207.021,0,211.967,0,218.062S4.946,229.103,11.041,229.103z"/>
			<path d="M27.603,245.664c-6.095,0-11.041,4.946-11.041,11.041s4.946,11.041,11.041,11.041h115.932
				c6.095,0,11.041-4.946,11.041-11.041s-4.946-11.041-11.041-11.041H27.603z"/>
			<path d="M176.658,284.308H11.041C4.946,284.308,0,289.255,0,295.349s4.946,11.041,11.041,11.041h165.616
				c6.095,0,11.041-4.946,11.041-11.041S182.752,284.308,176.658,284.308z"/>
		</g>
	</g>
</g>
<g>
</g>
<g>
</g>
<g>
</g>
<g>
</g>
<g>
</g>
<g>
</g>
<g>
</g>
<g>
</g>
<g>
</g>
<g>
</g>
<g>
</g>
<g>
</g>
<g>
</g>
<g>
</g>
<g>
</g>
</svg>
